# xmcd
#
# Track frame offsets: 
#        150
#        9328
#        19630
#        32202
#        48335
#        57757
#        72479
#        83923
#        98322
#        106525
#        121952
#        132433
#        150805
#        163460
#
# Disc length: 2341 seconds
#
# Revision: 1
# Processed by: cddbd v1.5.2PL0 Copyright (c) Steve Scherf et al.
# Submitted via: ExactAudioCopy v0.95b2
#
DISCID=a109230e
DTITLE=LITTLE RACHEL - "Cause I Feel Good
DYEAR=1900
DGENRE=Blues
TTITLE0=Ooh,He's Fine
TTITLE1=Back To Kansas City
TTITLE2=I'm What You Need
TTITLE3=Spider Man Blues
TTITLE4=Uh Uh Baby
TTITLE5=His World Don't Say as Much as His Eyes
TTITLE6=Scorched
TTITLE7=Is My Baby Happy Now?
TTITLE8=Don't Jump
TTITLE9=I Am Your Destiny
TTITLE10=Tough Lover
TTITLE11=If You Were Mine
TTITLE12=I Wanna Boogie
TTITLE13=Your Baby's My Baby Now
EXTD=
EXTT0=
EXTT1=
EXTT2=
EXTT3=
EXTT4=
EXTT5=
EXTT6=
EXTT7=
EXTT8=
EXTT9=
EXTT10=
EXTT11=
EXTT12=
EXTT13=
PLAYORDER=
